<svg width="54" height="24" viewBox="0 0 54 24" fill="none" xmlns="http://www.w3.org/2000/svg">
<g clip-path="url(#clip0_10_23)">
<path d="M0.917587 22.1103V5.86423C0.917587 5.57345 1.02888 5.28626 1.24966 5.09779C1.42915 4.94522 1.63018 4.86804 1.85096 4.86804H6.86064C7.15142 4.86804 7.43861 4.97035 7.63964 5.18036C7.80298 5.35267 7.88376 5.55909 7.88376 5.80141V17.1944C7.88376 17.4924 8.12428 17.7329 8.42224 17.7329H16.4097C16.7005 17.7329 16.9895 17.8352 17.1887 18.0452C17.3503 18.2175 17.4328 18.424 17.4328 18.6663V22.5267C17.4328 22.8588 17.2892 23.1854 17.0146 23.3721C16.8531 23.4816 16.67 23.5355 16.4636 23.5355L2.35534 23.5444C1.56018 23.5462 0.917587 22.9036 0.917587 22.1103Z" fill="white"/>
<path d="M26.9892 23.5431C25.4137 23.5395 24.0321 23.299 22.8407 22.8179C21.6493 22.3369 20.7252 21.5525 20.0667 20.4612C19.4081 19.3716 19.0816 17.9285 19.0852 16.1336L19.0959 10.3539L16.2438 10.3485C15.989 10.3485 15.7755 10.2587 15.6014 10.0774C15.4274 9.89614 15.3413 9.67716 15.343 9.4133L15.3502 5.78752C15.3502 5.52367 15.4381 5.30289 15.6122 5.12339C15.7862 4.9439 15.9998 4.85415 16.2546 4.85595L19.1067 4.86133L19.1139 1.38299C19.1139 1.11913 19.2018 0.898356 19.3759 0.718862C19.5499 0.539368 19.7634 0.451416 20.0182 0.451416L25.0531 0.460391C25.3079 0.460391 25.5214 0.550138 25.6955 0.731427C25.8695 0.912716 25.9556 1.13349 25.9538 1.39555L25.9467 4.8739L30.323 4.88287C30.5778 4.88287 30.7913 4.97262 30.9654 5.15391C31.1394 5.3352 31.2256 5.55597 31.2238 5.81804L31.2166 9.44382C31.2166 9.70767 31.1287 9.92845 30.9546 10.1079C30.7806 10.2874 30.5653 10.3772 30.3123 10.3754L25.9359 10.3664L25.9269 15.5358C25.9269 16.2305 26.0633 16.7744 26.3414 17.1692C26.6195 17.5641 27.0573 17.7634 27.6602 17.7634L30.5778 17.7688C30.8326 17.7688 31.0461 17.8585 31.2202 18.0398C31.3942 18.2211 31.4804 18.4419 31.4786 18.7039L31.4714 22.6169C31.4714 22.8807 31.3835 23.1015 31.2094 23.281C31.0354 23.4605 30.82 23.5503 30.567 23.5485L26.991 23.5413L26.9892 23.5431Z" fill="white"/>
<path d="M34.3301 23.5467C34.0989 23.5467 33.9089 23.4624 33.7601 23.2954C33.6096 23.1285 33.5361 22.9364 33.5361 22.721C33.5361 22.6492 33.5468 22.5649 33.5701 22.4698C33.5934 22.3746 33.64 22.2777 33.7082 22.1826L39.2397 14.1269C39.3221 14.0066 39.3239 13.8469 39.2433 13.7248L34.262 6.24526C34.2154 6.17346 34.176 6.0891 34.1401 5.99396C34.1061 5.89883 34.0882 5.80191 34.0882 5.70677C34.0882 5.49138 34.1688 5.29932 34.3301 5.13239C34.4915 4.96546 34.6761 4.8811 34.884 4.8811H40.1735C40.4962 4.8811 40.7382 4.95828 40.8995 5.11444C41.0608 5.2706 41.1755 5.40702 41.2454 5.52728L43.5398 8.98972C43.6814 9.20332 43.9951 9.20332 44.1367 8.98972L46.431 5.52728C46.5224 5.40702 46.6443 5.2706 46.7931 5.11444C46.9419 4.95828 47.1785 4.8811 47.5011 4.8811H52.5487C52.7566 4.8811 52.9394 4.96546 53.1026 5.13239C53.2639 5.29932 53.3445 5.47882 53.3445 5.67088C53.3445 5.79114 53.332 5.89883 53.3105 5.99396C53.2872 6.0891 53.2406 6.17346 53.1725 6.24526L48.0926 13.723C48.0084 13.8469 48.0102 14.0084 48.0962 14.1305L53.7263 22.1844C53.7962 22.2795 53.841 22.3764 53.8643 22.4715C53.8876 22.5667 53.8984 22.651 53.8984 22.7228C53.8984 22.9382 53.8177 23.1303 53.6564 23.2972C53.4951 23.4641 53.3105 23.5485 53.1026 23.5485H47.571C47.2717 23.5485 47.053 23.4767 46.915 23.3331C46.777 23.1895 46.6605 23.0585 46.569 22.9382L43.9897 19.194C43.8481 18.9894 43.547 18.9876 43.4036 19.1886L40.7274 22.9364C40.6575 23.0567 40.5482 23.1877 40.3994 23.3313C40.2488 23.4749 40.0248 23.5467 39.7254 23.5467H34.3301Z" fill="white"/>
</g>
<defs>
<clipPath id="clip0_10_23">
<rect width="54" height="24" fill="white"/>
</clipPath>
</defs>
</svg>
