<svg xmlns="http://www.w3.org/2000/svg" viewBox="0 0 50 50" width="50" height="50">
  <path d="M5 5h40v40H5z" fill="none"/>
  <path d="M19 13h13c2.76 0 5 2.24 5 5s-2.24 5-5 5h-1.11l4.7 5.49c1.9 1.89 1.9 5.07-.06 7.02-.98.97-2.26 1.46-3.54 1.46s-2.56-.49-3.53-1.46L24 31.04V32c0 2.76-2.24 5-5 5s-5-2.24-5-5V18c0-2.76 2.24-5 5-5zm0 2c-1.65 0-3 1.35-3 3v14c0 1.65 1.35 3 3 3s3-1.35 3-3V18c0-1.65-1.35-3-3-3zm3.97 0c.64.84 1.03 1.87 1.03 3v3h8c1.65 0 3-1.35 3-3s-1.35-3-3-3h-9.03zM24 23v5.24c.03.03.07.04.11.08l5.77 5.77c1.17 1.17 3.07 1.17 4.24 0 1.17-1.17 1.17-3.07 0-4.24L28.26 23H24z" fill="#ffffff"/>
</svg>
